<?xml version="1.0" encoding="UTF-8"?>
<svg xmlns="http://www.w3.org/2000/svg" viewBox="0 0 800 420" role="img" aria-label="EAM Mobile">
  <defs>
    <linearGradient id="eam-app-bg" x1="0%" y1="100%" x2="100%" y2="0%">
      <stop offset="0%" stop-color="#0f172a"/>
      <stop offset="100%" stop-color="#1a1140"/>
    </linearGradient>
    <linearGradient id="eam-app-screen" x1="0%" y1="0%" x2="0%" y2="100%">
      <stop offset="0%" stop-color="#1e293b"/>
      <stop offset="100%" stop-color="#0f172a"/>
    </linearGradient>
    <linearGradient id="eam-app-accent" x1="0%" y1="0%" x2="100%" y2="0%">
      <stop offset="0%" stop-color="#165dff"/>
      <stop offset="100%" stop-color="#722ed1"/>
    </linearGradient>
  </defs>
  <rect width="800" height="420" fill="url(#eam-app-bg)"/>
  <path d="M0 280 Q200 240 400 260 T800 250 L800 420 L0 420 Z" fill="#165dff" opacity="0.06"/>
  <path d="M0 320 Q300 280 800 300 L800 420 L0 420 Z" fill="#722ed1" opacity="0.08"/>
  <g transform="translate(280, 36)">
    <rect width="240" height="348" rx="36" fill="#1e293b" stroke="#475569" stroke-width="3"/>
    <rect x="14" y="18" width="212" height="300" rx="24" fill="url(#eam-app-screen)" stroke="#334155" stroke-width="1"/>
    <rect x="100" y="28" width="40" height="5" rx="3" fill="#334155"/>
    <text x="32" y="58" fill="#94a3b8" font-size="11" font-family="system-ui,sans-serif">9:41</text>
    <rect x="170" y="48" width="36" height="14" rx="4" fill="#334155"/>
    <rect x="30" y="72" width="180" height="36" rx="10" fill="url(#eam-app-accent)" opacity="0.35"/>
    <text x="120" y="95" text-anchor="middle" fill="#f8fafc" font-size="13" font-weight="600" font-family="system-ui,sans-serif">EAM</text>
    <rect x="30" y="124" width="82" height="82" rx="14" fill="#165dff" opacity="0.25" stroke="#165dff" stroke-opacity="0.5"/>
    <rect x="128" y="124" width="82" height="82" rx="14" fill="#722ed1" opacity="0.22" stroke="#722ed1" stroke-opacity="0.45"/>
    <rect x="30" y="218" width="82" height="82" rx="14" fill="#0ea5e9" opacity="0.2" stroke="#0ea5e9" stroke-opacity="0.45"/>
    <rect x="128" y="218" width="82" height="82" rx="14" fill="#334155"/>
    <rect x="30" y="312" width="180" height="8" rx="3" fill="#475569" opacity="0.7"/>
    <rect x="30" y="328" width="140" height="8" rx="3" fill="#475569" opacity="0.45"/>
    <rect x="96" y="332" width="48" height="5" rx="3" fill="#64748b"/>
  </g>
  <g transform="translate(560, 200)" opacity="0.85">
    <rect width="120" height="200" rx="16" fill="#1e293b" stroke="#334155" stroke-width="2"/>
    <rect x="10" y="12" width="100" height="168" rx="10" fill="#0f172a"/>
    <rect x="22" y="32" width="76" height="10" rx="3" fill="#165dff" opacity="0.4"/>
    <rect x="22" y="52" width="76" height="6" rx="2" fill="#475569"/>
    <rect x="22" y="66" width="56" height="6" rx="2" fill="#475569" opacity="0.6"/>
    <circle cx="60" cy="120" r="22" fill="#722ed1" opacity="0.3"/>
  </g>
  <text x="48" y="52" fill="#e2e8f0" font-size="22" font-weight="700" font-family="system-ui,sans-serif">EAM Mobile</text>
  <text x="48" y="78" fill="#64748b" font-size="13" font-family="system-ui,sans-serif">uni-app / App / H5</text>
</svg>
